# xmcd
#
# Track frame offsets: 
#        150
#        15745
#        31716
#        47835
#        65963
#        83769
#        97310
#        112989
#        124698
#        137705
#
# Disc length: 1989 seconds
#
# Revision: 0
# Processed by: cddbd v1.5.2PL0 Copyright (c) Steve Scherf et al.
# Submitted via: ExactAudioCopy v0.99pb5
#
DISCID=8607c30a
DTITLE=Courtney Dashe - Song Worktapes
DYEAR=2004
DGENRE=Country
TTITLE0=You Must Have Found A Reason
TTITLE1=The Box
TTITLE2=Shades of Blue and Green
TTITLE3=After Monterey
TTITLE4=(This is Gonna Take) Some Getting Used To
TTITLE5=This Time Last Year
TTITLE6=Baby's Gonna Be Okay
TTITLE7=Everything's Quiet
TTITLE8=Picture Perfect Lie
TTITLE9=Why Wait
EXTD=
EXTT0=
EXTT1=
EXTT2=
EXTT3=
EXTT4=
EXTT5=
EXTT6=
EXTT7=
EXTT8=
EXTT9=
PLAYORDER=
